<svg xmlns="http://www.w3.org/2000/svg" viewBox="0 0 2400 1900" width="2400" height="1900">
<defs>
  <filter id="glow">
    <feGaussianBlur stdDeviation="2" result="blur"/>
    <feMerge><feMergeNode in="blur"/><feMergeNode in="SourceGraphic"/></feMerge>
  </filter>
</defs>
<rect width="2400" height="1900" fill="#0f0f1a"/>

<!-- ==================== AUTH & USERS (CENTER) ==================== -->
<rect x="830" y="640" width="620" height="540" rx="8" fill="none" stroke="#4A90D9" stroke-width="1" stroke-dasharray="6,3" opacity="0.4"/>
<rect x="830" y="640" width="620" height="540" rx="8" fill="#4A90D9" opacity="0.03"/>
<text x="842" y="632" font-family="Helvetica,sans-serif" font-size="11" fill="#4A90D9" letter-spacing="3" opacity="0.7">AUTH</text>
<text x="846" y="664" font-family="Helvetica,sans-serif" font-size="15" font-weight="bold" fill="#ffffff">Authentication &amp; Users</text>

<!-- users table -->
<rect x="860" y="680" width="240" height="242" rx="4" fill="#1a1a2e" stroke="#4A90D9" stroke-width="1.5" opacity="0.95"/>
<rect x="860" y="680" width="240" height="32" rx="4" fill="#4A90D9" opacity="0.15"/>
<rect x="860" y="711" width="240" height="2" fill="#4A90D9" opacity="0.4"/>
<text x="872" y="701" font-family="Consolas,monospace" font-size="13" font-weight="bold" fill="#ffffff">users</text>
<text x="872" y="732" font-family="Consolas,monospace" font-size="10" font-weight="bold" fill="#f0c040">PK</text>
<text x="894" y="732" font-family="Consolas,monospace" font-size="11" fill="#ffffff">id</text>
<text x="894" y="752" font-family="Consolas,monospace" font-size="11" fill="#888899">email (UK), passwordHash</text>
<text x="894" y="772" font-family="Consolas,monospace" font-size="11" fill="#888899">socialId, socialType</text>
<text x="894" y="792" font-family="Consolas,monospace" font-size="11" fill="#888899">name, role, gender</text>
<text x="894" y="812" font-family="Consolas,monospace" font-size="11" fill="#888899">preferences (jsonb)</text>
<text x="894" y="832" font-family="Consolas,monospace" font-size="11" fill="#888899">preferredLanguage</text>
<text x="894" y="852" font-family="Consolas,monospace" font-size="11" fill="#888899">isDeactivated, emailVerified</text>
<text x="894" y="872" font-family="Consolas,monospace" font-size="11" fill="#888899">version</text>
<text x="894" y="892" font-family="Consolas,monospace" font-size="11" fill="#888899">createdAt, updatedAt</text>
<text x="894" y="912" font-family="Consolas,monospace" font-size="11" fill="#888899">deletedAt</text>

<!-- email_verifications table -->
<rect x="1150" y="680" width="250" height="162" rx="4" fill="#1a1a2e" stroke="#4A90D9" stroke-width="1.5" opacity="0.95"/>
<rect x="1150" y="680" width="250" height="32" rx="4" fill="#4A90D9" opacity="0.15"/>
<rect x="1150" y="711" width="250" height="2" fill="#4A90D9" opacity="0.4"/>
<text x="1162" y="701" font-family="Consolas,monospace" font-size="13" font-weight="bold" fill="#ffffff">email_verifications</text>
<text x="1162" y="732" font-family="Consolas,monospace" font-size="10" font-weight="bold" fill="#f0c040">PK</text>
<text x="1184" y="732" font-family="Consolas,monospace" font-size="11" fill="#ffffff">id</text>
<text x="1184" y="752" font-family="Consolas,monospace" font-size="11" fill="#888899">email, codeHash</text>
<text x="1184" y="772" font-family="Consolas,monospace" font-size="11" fill="#888899">purpose, expiresAt</text>
<text x="1184" y="792" font-family="Consolas,monospace" font-size="11" fill="#888899">used, status</text>
<text x="1184" y="812" font-family="Consolas,monospace" font-size="11" fill="#888899">sendCount, failCount</text>
<text x="1184" y="832" font-family="Consolas,monospace" font-size="11" fill="#888899">createdAt</text>

<!-- user_address table -->
<rect x="860" y="950" width="240" height="182" rx="4" fill="#1a1a2e" stroke="#4A90D9" stroke-width="1.5" opacity="0.95"/>
<rect x="860" y="950" width="240" height="32" rx="4" fill="#4A90D9" opacity="0.15"/>
<rect x="860" y="981" width="240" height="2" fill="#4A90D9" opacity="0.4"/>
<text x="872" y="971" font-family="Consolas,monospace" font-size="13" font-weight="bold" fill="#ffffff">user_address</text>
<text x="872" y="1002" font-family="Consolas,monospace" font-size="10" font-weight="bold" fill="#f0c040">PK</text>
<text x="894" y="1002" font-family="Consolas,monospace" font-size="11" fill="#ffffff">id</text>
<text x="872" y="1022" font-family="Consolas,monospace" font-size="10" font-weight="bold" fill="#4ecb71">FK</text>
<text x="894" y="1022" font-family="Consolas,monospace" font-size="11" fill="#c8c8d0">userId → users</text>
<text x="894" y="1042" font-family="Consolas,monospace" font-size="11" fill="#888899">roadAddress, postalCode</text>
<text x="894" y="1062" font-family="Consolas,monospace" font-size="11" fill="#888899">latitude, longitude</text>
<text x="894" y="1082" font-family="Consolas,monospace" font-size="11" fill="#888899">isDefault, isSearchAddress</text>
<text x="894" y="1102" font-family="Consolas,monospace" font-size="11" fill="#888899">alias</text>
<text x="894" y="1122" font-family="Consolas,monospace" font-size="11" fill="#888899">createdAt, deletedAt</text>

<!-- user_taste_analysis table -->
<rect x="1150" y="880" width="250" height="242" rx="4" fill="#1a1a2e" stroke="#4A90D9" stroke-width="1.5" opacity="0.95"/>
<rect x="1150" y="880" width="250" height="32" rx="4" fill="#4A90D9" opacity="0.15"/>
<rect x="1150" y="911" width="250" height="2" fill="#4A90D9" opacity="0.4"/>
<text x="1162" y="901" font-family="Consolas,monospace" font-size="13" font-weight="bold" fill="#ffffff">user_taste_analysis</text>
<text x="1162" y="932" font-family="Consolas,monospace" font-size="10" font-weight="bold" fill="#f0c040">PK</text>
<text x="1184" y="932" font-family="Consolas,monospace" font-size="11" fill="#ffffff">id</text>
<text x="1162" y="952" font-family="Consolas,monospace" font-size="10" font-weight="bold" fill="#4ecb71">FK</text>
<text x="1184" y="952" font-family="Consolas,monospace" font-size="11" fill="#c8c8d0">userId → users (UK)</text>
<text x="1184" y="972" font-family="Consolas,monospace" font-size="11" fill="#888899">stablePatterns (jsonb)</text>
<text x="1184" y="992" font-family="Consolas,monospace" font-size="11" fill="#888899">recentSignals (jsonb)</text>
<text x="1184" y="1012" font-family="Consolas,monospace" font-size="11" fill="#888899">diversityHints (jsonb)</text>
<text x="1184" y="1032" font-family="Consolas,monospace" font-size="11" fill="#888899">compactSummary (text)</text>
<text x="1184" y="1052" font-family="Consolas,monospace" font-size="11" fill="#888899">analysisParagraphs (jsonb)</text>
<text x="1184" y="1072" font-family="Consolas,monospace" font-size="11" fill="#888899">analysisVersion</text>
<text x="1184" y="1092" font-family="Consolas,monospace" font-size="11" fill="#888899">lastAnalyzedAt</text>
<text x="1184" y="1112" font-family="Consolas,monospace" font-size="11" fill="#888899">deletedAt</text>

<!-- ==================== MENU & AI (TOP) ==================== -->
<rect x="680" y="30" width="620" height="490" rx="8" fill="none" stroke="#9B59B6" stroke-width="1" stroke-dasharray="6,3" opacity="0.4"/>
<rect x="680" y="30" width="620" height="490" rx="8" fill="#9B59B6" opacity="0.03"/>
<text x="692" y="22" font-family="Helvetica,sans-serif" font-size="11" fill="#9B59B6" letter-spacing="3" opacity="0.7">MENU / AI</text>
<text x="696" y="54" font-family="Helvetica,sans-serif" font-size="15" font-weight="bold" fill="#ffffff">Menu &amp; AI Recommendation</text>

<!-- menu_recommendation table -->
<rect x="700" y="70" width="260" height="242" rx="4" fill="#1a1a2e" stroke="#9B59B6" stroke-width="1.5" opacity="0.95"/>
<rect x="700" y="70" width="260" height="32" rx="4" fill="#9B59B6" opacity="0.15"/>
<rect x="700" y="101" width="260" height="2" fill="#9B59B6" opacity="0.4"/>
<text x="712" y="91" font-family="Consolas,monospace" font-size="13" font-weight="bold" fill="#ffffff">menu_recommendation</text>
<text x="712" y="122" font-family="Consolas,monospace" font-size="10" font-weight="bold" fill="#f0c040">PK</text>
<text x="734" y="122" font-family="Consolas,monospace" font-size="11" fill="#ffffff">id</text>
<text x="712" y="142" font-family="Consolas,monospace" font-size="10" font-weight="bold" fill="#4ecb71">FK</text>
<text x="734" y="142" font-family="Consolas,monospace" font-size="11" fill="#c8c8d0">userId → users</text>
<text x="734" y="162" font-family="Consolas,monospace" font-size="11" fill="#888899">recommendations (text[])</text>
<text x="734" y="182" font-family="Consolas,monospace" font-size="11" fill="#888899">intro, closing</text>
<text x="734" y="202" font-family="Consolas,monospace" font-size="11" fill="#888899">recommendationDetails (jsonb)</text>
<text x="734" y="222" font-family="Consolas,monospace" font-size="11" fill="#888899">prompt (text)</text>
<text x="734" y="242" font-family="Consolas,monospace" font-size="11" fill="#888899">requestAddress</text>
<text x="734" y="262" font-family="Consolas,monospace" font-size="11" fill="#888899">region</text>
<text x="734" y="282" font-family="Consolas,monospace" font-size="11" fill="#888899">recommendedAt</text>
<text x="734" y="302" font-family="Consolas,monospace" font-size="11" fill="#888899">deletedAt</text>

<!-- menu_selection table -->
<rect x="1000" y="70" width="260" height="222" rx="4" fill="#1a1a2e" stroke="#9B59B6" stroke-width="1.5" opacity="0.95"/>
<rect x="1000" y="70" width="260" height="32" rx="4" fill="#9B59B6" opacity="0.15"/>
<rect x="1000" y="101" width="260" height="2" fill="#9B59B6" opacity="0.4"/>
<text x="1012" y="91" font-family="Consolas,monospace" font-size="13" font-weight="bold" fill="#ffffff">menu_selection</text>
<text x="1012" y="122" font-family="Consolas,monospace" font-size="10" font-weight="bold" fill="#f0c040">PK</text>
<text x="1034" y="122" font-family="Consolas,monospace" font-size="11" fill="#ffffff">id</text>
<text x="1012" y="142" font-family="Consolas,monospace" font-size="10" font-weight="bold" fill="#4ecb71">FK</text>
<text x="1034" y="142" font-family="Consolas,monospace" font-size="11" fill="#c8c8d0">userId → users</text>
<text x="1012" y="162" font-family="Consolas,monospace" font-size="10" font-weight="bold" fill="#4ecb71">FK</text>
<text x="1034" y="162" font-family="Consolas,monospace" font-size="11" fill="#c8c8d0">menuRecommendationId → menu_rec</text>
<text x="1012" y="182" font-family="Consolas,monospace" font-size="10" font-weight="bold" fill="#4ecb71">FK</text>
<text x="1034" y="182" font-family="Consolas,monospace" font-size="11" fill="#c8c8d0">batchJobId → batch_job</text>
<text x="1034" y="202" font-family="Consolas,monospace" font-size="11" fill="#888899">menuPayload (jsonb)</text>
<text x="1034" y="222" font-family="Consolas,monospace" font-size="11" fill="#888899">status (enum)</text>
<text x="1034" y="242" font-family="Consolas,monospace" font-size="11" fill="#888899">selectedAt, selectedDate (UK)</text>
<text x="1034" y="262" font-family="Consolas,monospace" font-size="11" fill="#888899">retryCount, version</text>
<text x="1034" y="282" font-family="Consolas,monospace" font-size="11" fill="#888899">deletedAt</text>

<!-- place_recommendation table -->
<rect x="700" y="340" width="300" height="242" rx="4" fill="#1a1a2e" stroke="#9B59B6" stroke-width="1.5" opacity="0.95"/>
<rect x="700" y="340" width="300" height="32" rx="4" fill="#9B59B6" opacity="0.15"/>
<rect x="700" y="371" width="300" height="2" fill="#9B59B6" opacity="0.4"/>
<text x="712" y="361" font-family="Consolas,monospace" font-size="13" font-weight="bold" fill="#ffffff">place_recommendation</text>
<text x="712" y="392" font-family="Consolas,monospace" font-size="10" font-weight="bold" fill="#f0c040">PK</text>
<text x="734" y="392" font-family="Consolas,monospace" font-size="11" fill="#ffffff">id</text>
<text x="712" y="412" font-family="Consolas,monospace" font-size="10" font-weight="bold" fill="#4ecb71">FK</text>
<text x="734" y="412" font-family="Consolas,monospace" font-size="11" fill="#c8c8d0">menuRecommendationId → menu_rec</text>
<text x="712" y="432" font-family="Consolas,monospace" font-size="10" font-weight="bold" fill="#4ecb71">FK</text>
<text x="734" y="432" font-family="Consolas,monospace" font-size="11" fill="#c8c8d0">userPlaceId → user_place</text>
<text x="734" y="452" font-family="Consolas,monospace" font-size="11" fill="#888899">placeId, source (enum)</text>
<text x="734" y="472" font-family="Consolas,monospace" font-size="11" fill="#888899">reason, reasonTags (jsonb)</text>
<text x="734" y="492" font-family="Consolas,monospace" font-size="11" fill="#888899">menuName</text>
<text x="734" y="512" font-family="Consolas,monospace" font-size="11" fill="#888899">nameKo, nameEn, nameLocal</text>
<text x="734" y="532" font-family="Consolas,monospace" font-size="11" fill="#888899">addressKo, addressEn, addressLocal</text>
<text x="734" y="552" font-family="Consolas,monospace" font-size="11" fill="#888899">placeLatitude, placeLongitude</text>
<text x="734" y="572" font-family="Consolas,monospace" font-size="11" fill="#888899">deletedAt</text>

<!-- ==================== PLACE & RATING (LEFT) ==================== -->
<rect x="40" y="400" width="600" height="580" rx="8" fill="none" stroke="#27AE60" stroke-width="1" stroke-dasharray="6,3" opacity="0.4"/>
<rect x="40" y="400" width="600" height="580" rx="8" fill="#27AE60" opacity="0.03"/>
<text x="52" y="392" font-family="Helvetica,sans-serif" font-size="11" fill="#27AE60" letter-spacing="3" opacity="0.7">PLACE</text>
<text x="56" y="424" font-family="Helvetica,sans-serif" font-size="15" font-weight="bold" fill="#ffffff">Place &amp; Rating</text>

<!-- user_place table -->
<rect x="60" y="440" width="260" height="302" rx="4" fill="#1a1a2e" stroke="#27AE60" stroke-width="1.5" opacity="0.95"/>
<rect x="60" y="440" width="260" height="32" rx="4" fill="#27AE60" opacity="0.15"/>
<rect x="60" y="471" width="260" height="2" fill="#27AE60" opacity="0.4"/>
<text x="72" y="461" font-family="Consolas,monospace" font-size="13" font-weight="bold" fill="#ffffff">user_place</text>
<text x="72" y="492" font-family="Consolas,monospace" font-size="10" font-weight="bold" fill="#f0c040">PK</text>
<text x="94" y="492" font-family="Consolas,monospace" font-size="11" fill="#ffffff">id</text>
<text x="72" y="512" font-family="Consolas,monospace" font-size="10" font-weight="bold" fill="#4ecb71">FK</text>
<text x="94" y="512" font-family="Consolas,monospace" font-size="11" fill="#c8c8d0">userId → users</text>
<text x="94" y="532" font-family="Consolas,monospace" font-size="11" fill="#888899">name, address</text>
<text x="94" y="552" font-family="Consolas,monospace" font-size="11" fill="#888899">latitude, longitude</text>
<text x="94" y="572" font-family="Consolas,monospace" font-size="11" fill="#888899">location (PostGIS Point)</text>
<text x="94" y="592" font-family="Consolas,monospace" font-size="11" fill="#888899">menuItems (jsonb)</text>
<text x="94" y="612" font-family="Consolas,monospace" font-size="11" fill="#888899">photos, businessHours</text>
<text x="94" y="632" font-family="Consolas,monospace" font-size="11" fill="#888899">phoneNumber, category</text>
<text x="94" y="652" font-family="Consolas,monospace" font-size="11" fill="#888899">status (enum)</text>
<text x="94" y="672" font-family="Consolas,monospace" font-size="11" fill="#888899">rejectionReason</text>
<text x="94" y="692" font-family="Consolas,monospace" font-size="11" fill="#888899">averageRating, ratingCount</text>
<text x="94" y="712" font-family="Consolas,monospace" font-size="11" fill="#888899">version</text>
<text x="94" y="732" font-family="Consolas,monospace" font-size="11" fill="#888899">createdAt, deletedAt</text>

<!-- place_rating table -->
<rect x="370" y="440" width="250" height="182" rx="4" fill="#1a1a2e" stroke="#27AE60" stroke-width="1.5" opacity="0.95"/>
<rect x="370" y="440" width="250" height="32" rx="4" fill="#27AE60" opacity="0.15"/>
<rect x="370" y="471" width="250" height="2" fill="#27AE60" opacity="0.4"/>
<text x="382" y="461" font-family="Consolas,monospace" font-size="13" font-weight="bold" fill="#ffffff">place_rating</text>
<text x="382" y="492" font-family="Consolas,monospace" font-size="10" font-weight="bold" fill="#f0c040">PK</text>
<text x="404" y="492" font-family="Consolas,monospace" font-size="11" fill="#ffffff">id</text>
<text x="382" y="512" font-family="Consolas,monospace" font-size="10" font-weight="bold" fill="#4ecb71">FK</text>
<text x="404" y="512" font-family="Consolas,monospace" font-size="11" fill="#c8c8d0">userId → users</text>
<text x="382" y="532" font-family="Consolas,monospace" font-size="10" font-weight="bold" fill="#4ecb71">FK</text>
<text x="404" y="532" font-family="Consolas,monospace" font-size="11" fill="#c8c8d0">placeRecommendationId → place_rec</text>
<text x="404" y="552" font-family="Consolas,monospace" font-size="11" fill="#888899">placeId, placeName</text>
<text x="404" y="572" font-family="Consolas,monospace" font-size="11" fill="#888899">rating (int)</text>
<text x="404" y="592" font-family="Consolas,monospace" font-size="11" fill="#888899">skipped, promptDismissed</text>
<text x="404" y="612" font-family="Consolas,monospace" font-size="11" fill="#888899">createdAt, deletedAt</text>

<!-- user_place_rejection_history table -->
<rect x="60" y="780" width="280" height="142" rx="4" fill="#1a1a2e" stroke="#27AE60" stroke-width="1.5" opacity="0.95"/>
<rect x="60" y="780" width="280" height="32" rx="4" fill="#27AE60" opacity="0.15"/>
<rect x="60" y="811" width="280" height="2" fill="#27AE60" opacity="0.4"/>
<text x="72" y="801" font-family="Consolas,monospace" font-size="13" font-weight="bold" fill="#ffffff">user_place_rejection_history</text>
<text x="72" y="832" font-family="Consolas,monospace" font-size="10" font-weight="bold" fill="#f0c040">PK</text>
<text x="94" y="832" font-family="Consolas,monospace" font-size="11" fill="#ffffff">id</text>
<text x="72" y="852" font-family="Consolas,monospace" font-size="10" font-weight="bold" fill="#4ecb71">FK</text>
<text x="94" y="852" font-family="Consolas,monospace" font-size="11" fill="#c8c8d0">userPlaceId → user_place</text>
<text x="72" y="872" font-family="Consolas,monospace" font-size="10" font-weight="bold" fill="#4ecb71">FK</text>
<text x="94" y="872" font-family="Consolas,monospace" font-size="11" fill="#c8c8d0">adminId → users</text>
<text x="94" y="892" font-family="Consolas,monospace" font-size="11" fill="#888899">reason (text)</text>
<text x="94" y="912" font-family="Consolas,monospace" font-size="11" fill="#888899">rejectedAt</text>

<!-- ==================== NOTIFICATION & BUG REPORT (RIGHT) ==================== -->
<rect x="1530" y="350" width="830" height="560" rx="8" fill="none" stroke="#F39C12" stroke-width="1" stroke-dasharray="6,3" opacity="0.4"/>
<rect x="1530" y="350" width="830" height="560" rx="8" fill="#F39C12" opacity="0.03"/>
<text x="1542" y="342" font-family="Helvetica,sans-serif" font-size="11" fill="#F39C12" letter-spacing="3" opacity="0.7">NOTIFICATION &amp; REPORT</text>
<text x="1546" y="374" font-family="Helvetica,sans-serif" font-size="15" font-weight="bold" fill="#ffffff">Notification &amp; Bug Report</text>

<!-- notification table -->
<rect x="1560" y="390" width="230" height="182" rx="4" fill="#1a1a2e" stroke="#F39C12" stroke-width="1.5" opacity="0.95"/>
<rect x="1560" y="390" width="230" height="32" rx="4" fill="#F39C12" opacity="0.15"/>
<rect x="1560" y="421" width="230" height="2" fill="#F39C12" opacity="0.4"/>
<text x="1572" y="411" font-family="Consolas,monospace" font-size="13" font-weight="bold" fill="#ffffff">notification</text>
<text x="1572" y="442" font-family="Consolas,monospace" font-size="10" font-weight="bold" fill="#f0c040">PK</text>
<text x="1594" y="442" font-family="Consolas,monospace" font-size="11" fill="#ffffff">id</text>
<text x="1572" y="462" font-family="Consolas,monospace" font-size="10" font-weight="bold" fill="#4ecb71">FK</text>
<text x="1594" y="462" font-family="Consolas,monospace" font-size="11" fill="#c8c8d0">createdById → users</text>
<text x="1594" y="482" font-family="Consolas,monospace" font-size="11" fill="#888899">type (enum), status (enum)</text>
<text x="1594" y="502" font-family="Consolas,monospace" font-size="11" fill="#888899">title, content</text>
<text x="1594" y="522" font-family="Consolas,monospace" font-size="11" fill="#888899">isPinned, viewCount</text>
<text x="1594" y="542" font-family="Consolas,monospace" font-size="11" fill="#888899">scheduledAt, publishedAt</text>
<text x="1594" y="562" font-family="Consolas,monospace" font-size="11" fill="#888899">deletedAt</text>

<!-- bug_report table -->
<rect x="1840" y="390" width="220" height="202" rx="4" fill="#1a1a2e" stroke="#F39C12" stroke-width="1.5" opacity="0.95"/>
<rect x="1840" y="390" width="220" height="32" rx="4" fill="#F39C12" opacity="0.15"/>
<rect x="1840" y="421" width="220" height="2" fill="#F39C12" opacity="0.4"/>
<text x="1852" y="411" font-family="Consolas,monospace" font-size="13" font-weight="bold" fill="#ffffff">bug_report</text>
<text x="1852" y="442" font-family="Consolas,monospace" font-size="10" font-weight="bold" fill="#f0c040">PK</text>
<text x="1874" y="442" font-family="Consolas,monospace" font-size="11" fill="#ffffff">id</text>
<text x="1852" y="462" font-family="Consolas,monospace" font-size="10" font-weight="bold" fill="#4ecb71">FK</text>
<text x="1874" y="462" font-family="Consolas,monospace" font-size="11" fill="#c8c8d0">userId → users</text>
<text x="1874" y="482" font-family="Consolas,monospace" font-size="11" fill="#888899">category, title</text>
<text x="1874" y="502" font-family="Consolas,monospace" font-size="11" fill="#888899">description (text)</text>
<text x="1874" y="522" font-family="Consolas,monospace" font-size="11" fill="#888899">images (jsonb)</text>
<text x="1874" y="542" font-family="Consolas,monospace" font-size="11" fill="#888899">status (enum)</text>
<text x="1874" y="562" font-family="Consolas,monospace" font-size="11" fill="#888899">createdAt, updatedAt</text>
<text x="1874" y="582" font-family="Consolas,monospace" font-size="11" fill="#888899">deletedAt</text>

<!-- bug_report_notification table -->
<rect x="2100" y="390" width="210" height="122" rx="4" fill="#1a1a2e" stroke="#F39C12" stroke-width="1.5" opacity="0.95"/>
<rect x="2100" y="390" width="210" height="32" rx="4" fill="#F39C12" opacity="0.15"/>
<rect x="2100" y="421" width="210" height="2" fill="#F39C12" opacity="0.4"/>
<text x="2112" y="411" font-family="Consolas,monospace" font-size="13" font-weight="bold" fill="#ffffff">bug_report_notification</text>
<text x="2112" y="442" font-family="Consolas,monospace" font-size="10" font-weight="bold" fill="#f0c040">PK</text>
<text x="2134" y="442" font-family="Consolas,monospace" font-size="11" fill="#ffffff">id</text>
<text x="2134" y="462" font-family="Consolas,monospace" font-size="11" fill="#888899">unconfirmedCount</text>
<text x="2134" y="482" font-family="Consolas,monospace" font-size="11" fill="#888899">threshold</text>
<text x="2134" y="502" font-family="Consolas,monospace" font-size="11" fill="#888899">sentAt</text>

<!-- bug_report_admin_note table -->
<rect x="1560" y="640" width="260" height="142" rx="4" fill="#1a1a2e" stroke="#F39C12" stroke-width="1.5" opacity="0.95"/>
<rect x="1560" y="640" width="260" height="32" rx="4" fill="#F39C12" opacity="0.15"/>
<rect x="1560" y="671" width="260" height="2" fill="#F39C12" opacity="0.4"/>
<text x="1572" y="661" font-family="Consolas,monospace" font-size="13" font-weight="bold" fill="#ffffff">bug_report_admin_note</text>
<text x="1572" y="692" font-family="Consolas,monospace" font-size="10" font-weight="bold" fill="#f0c040">PK</text>
<text x="1594" y="692" font-family="Consolas,monospace" font-size="11" fill="#ffffff">id (uuid)</text>
<text x="1572" y="712" font-family="Consolas,monospace" font-size="10" font-weight="bold" fill="#4ecb71">FK</text>
<text x="1594" y="712" font-family="Consolas,monospace" font-size="11" fill="#c8c8d0">bugReportId → bug_report</text>
<text x="1572" y="732" font-family="Consolas,monospace" font-size="10" font-weight="bold" fill="#4ecb71">FK</text>
<text x="1594" y="732" font-family="Consolas,monospace" font-size="11" fill="#c8c8d0">createdById → users (nullable)</text>
<text x="1594" y="752" font-family="Consolas,monospace" font-size="11" fill="#888899">content (text)</text>
<text x="1594" y="772" font-family="Consolas,monospace" font-size="11" fill="#888899">createdAt, deletedAt</text>

<!-- bug_report_status_history table -->
<rect x="1860" y="640" width="270" height="142" rx="4" fill="#1a1a2e" stroke="#F39C12" stroke-width="1.5" opacity="0.95"/>
<rect x="1860" y="640" width="270" height="32" rx="4" fill="#F39C12" opacity="0.15"/>
<rect x="1860" y="671" width="270" height="2" fill="#F39C12" opacity="0.4"/>
<text x="1872" y="661" font-family="Consolas,monospace" font-size="13" font-weight="bold" fill="#ffffff">bug_report_status_history</text>
<text x="1872" y="692" font-family="Consolas,monospace" font-size="10" font-weight="bold" fill="#f0c040">PK</text>
<text x="1894" y="692" font-family="Consolas,monospace" font-size="11" fill="#ffffff">id (uuid)</text>
<text x="1872" y="712" font-family="Consolas,monospace" font-size="10" font-weight="bold" fill="#4ecb71">FK</text>
<text x="1894" y="712" font-family="Consolas,monospace" font-size="11" fill="#c8c8d0">bugReportId → bug_report</text>
<text x="1872" y="732" font-family="Consolas,monospace" font-size="10" font-weight="bold" fill="#4ecb71">FK</text>
<text x="1894" y="732" font-family="Consolas,monospace" font-size="11" fill="#c8c8d0">changedById → users (nullable)</text>
<text x="1894" y="752" font-family="Consolas,monospace" font-size="11" fill="#888899">previousStatus, status</text>
<text x="1894" y="772" font-family="Consolas,monospace" font-size="11" fill="#888899">changedAt, deletedAt</text>

<!-- ==================== ADMIN AUDIT (BOTTOM-LEFT) ==================== -->
<rect x="620" y="1280" width="400" height="280" rx="8" fill="none" stroke="#E67E22" stroke-width="1" stroke-dasharray="6,3" opacity="0.4"/>
<rect x="620" y="1280" width="400" height="280" rx="8" fill="#E67E22" opacity="0.03"/>
<text x="632" y="1272" font-family="Helvetica,sans-serif" font-size="11" fill="#E67E22" letter-spacing="3" opacity="0.7">ADMIN</text>
<text x="636" y="1304" font-family="Helvetica,sans-serif" font-size="15" font-weight="bold" fill="#ffffff">Admin Audit</text>

<!-- admin_audit_log table -->
<rect x="650" y="1320" width="320" height="182" rx="4" fill="#1a1a2e" stroke="#E67E22" stroke-width="1.5" opacity="0.95"/>
<rect x="650" y="1320" width="320" height="32" rx="4" fill="#E67E22" opacity="0.15"/>
<rect x="650" y="1351" width="320" height="2" fill="#E67E22" opacity="0.4"/>
<text x="662" y="1341" font-family="Consolas,monospace" font-size="13" font-weight="bold" fill="#ffffff">admin_audit_log</text>
<text x="662" y="1372" font-family="Consolas,monospace" font-size="10" font-weight="bold" fill="#f0c040">PK</text>
<text x="684" y="1372" font-family="Consolas,monospace" font-size="11" fill="#ffffff">id (uuid)</text>
<text x="662" y="1392" font-family="Consolas,monospace" font-size="10" font-weight="bold" fill="#4ecb71">FK</text>
<text x="684" y="1392" font-family="Consolas,monospace" font-size="11" fill="#c8c8d0">adminId → users (nullable)</text>
<text x="684" y="1412" font-family="Consolas,monospace" font-size="11" fill="#888899">action, target</text>
<text x="684" y="1432" font-family="Consolas,monospace" font-size="11" fill="#888899">previousValue (jsonb)</text>
<text x="684" y="1452" font-family="Consolas,monospace" font-size="11" fill="#888899">newValue (jsonb)</text>
<text x="684" y="1472" font-family="Consolas,monospace" font-size="11" fill="#888899">ipAddress</text>
<text x="684" y="1492" font-family="Consolas,monospace" font-size="11" fill="#888899">createdAt</text>

<!-- ==================== BATCH PROCESSING (BOTTOM-RIGHT) ==================== -->
<rect x="1150" y="1280" width="380" height="280" rx="8" fill="none" stroke="#E74C3C" stroke-width="1" stroke-dasharray="6,3" opacity="0.4"/>
<rect x="1150" y="1280" width="380" height="280" rx="8" fill="#E74C3C" opacity="0.03"/>
<text x="1162" y="1272" font-family="Helvetica,sans-serif" font-size="11" fill="#E74C3C" letter-spacing="3" opacity="0.7">BATCH</text>
<text x="1166" y="1304" font-family="Helvetica,sans-serif" font-size="15" font-weight="bold" fill="#ffffff">Batch Processing</text>

<!-- batch_job table -->
<rect x="1180" y="1320" width="300" height="242" rx="4" fill="#1a1a2e" stroke="#E74C3C" stroke-width="1.5" opacity="0.95"/>
<rect x="1180" y="1320" width="300" height="32" rx="4" fill="#E74C3C" opacity="0.15"/>
<rect x="1180" y="1351" width="300" height="2" fill="#E74C3C" opacity="0.4"/>
<text x="1192" y="1341" font-family="Consolas,monospace" font-size="13" font-weight="bold" fill="#ffffff">batch_job</text>
<text x="1192" y="1372" font-family="Consolas,monospace" font-size="10" font-weight="bold" fill="#f0c040">PK</text>
<text x="1214" y="1372" font-family="Consolas,monospace" font-size="11" fill="#ffffff">id</text>
<text x="1214" y="1392" font-family="Consolas,monospace" font-size="11" fill="#888899">type (enum), status (enum)</text>
<text x="1214" y="1412" font-family="Consolas,monospace" font-size="11" fill="#888899">openAiBatchId</text>
<text x="1214" y="1432" font-family="Consolas,monospace" font-size="11" fill="#888899">inputFileId, outputFileId</text>
<text x="1214" y="1452" font-family="Consolas,monospace" font-size="11" fill="#888899">errorFileId</text>
<text x="1214" y="1472" font-family="Consolas,monospace" font-size="11" fill="#888899">totalRequests</text>
<text x="1214" y="1492" font-family="Consolas,monospace" font-size="11" fill="#888899">completedRequests</text>
<text x="1214" y="1512" font-family="Consolas,monospace" font-size="11" fill="#888899">failedRequests</text>
<text x="1214" y="1532" font-family="Consolas,monospace" font-size="11" fill="#888899">submittedAt, completedAt</text>
<text x="1214" y="1552" font-family="Consolas,monospace" font-size="11" fill="#888899">errorMessage</text>

<!-- ==================== RELATIONSHIP LINES ==================== -->

<!-- === INTRA-DOMAIN (solid green #4ecb71) === -->

<!-- AUTH: users → user_address (1:N, within Auth group, downward) -->
<path d="M 980,922 L 980,936 L 980,936 L 980,950" fill="none" stroke="#4ecb71" stroke-width="1.2"/>
<circle cx="980" cy="950" r="3" fill="#4ecb71"/>
<text x="988" y="938" font-family="Consolas,monospace" font-size="9" fill="#4ecb71" text-anchor="middle">1:N</text>

<!-- AUTH: users → user_taste_analysis (1:1, within Auth group) -->
<path d="M 1100,800 L 1125,800 L 1125,900 L 1150,900" fill="none" stroke="#4ecb71" stroke-width="1.2"/>
<circle cx="1150" cy="900" r="3" fill="#4ecb71"/>
<text x="1133" y="844" font-family="Consolas,monospace" font-size="9" fill="#4ecb71" text-anchor="middle">1:1</text>

<!-- MENU/AI: menu_recommendation → place_recommendation (1:N, downward) -->
<path d="M 830,312 L 830,326 L 830,326 L 830,340" fill="none" stroke="#4ecb71" stroke-width="1.2"/>
<circle cx="830" cy="340" r="3" fill="#4ecb71"/>
<text x="838" y="320" font-family="Consolas,monospace" font-size="9" fill="#4ecb71" text-anchor="middle">1:N</text>

<!-- MENU/AI: menu_recommendation → menu_selection (1:N, right) -->
<path d="M 960,170 L 980,170 L 980,170 L 1000,170" fill="none" stroke="#4ecb71" stroke-width="1.2"/>
<circle cx="1000" cy="170" r="3" fill="#4ecb71"/>
<text x="980" y="164" font-family="Consolas,monospace" font-size="9" fill="#4ecb71" text-anchor="middle">1:N</text>

<!-- PLACE: user_place → user_place_rejection_history (1:N, downward) -->
<path d="M 190,742 L 190,760 L 190,760 L 190,780" fill="none" stroke="#4ecb71" stroke-width="1.2"/>
<circle cx="190" cy="780" r="3" fill="#4ecb71"/>
<text x="198" y="756" font-family="Consolas,monospace" font-size="9" fill="#4ecb71" text-anchor="middle">1:N</text>

<!-- NOTIFICATION: bug_report → bug_report_admin_note (1:N, downward) -->
<path d="M 1950,592 L 1950,616 L 1690,616 L 1690,640" fill="none" stroke="#4ecb71" stroke-width="1.2"/>
<circle cx="1690" cy="640" r="3" fill="#4ecb71"/>
<text x="1820" y="610" font-family="Consolas,monospace" font-size="9" fill="#4ecb71" text-anchor="middle">1:N</text>

<!-- NOTIFICATION: bug_report → bug_report_status_history (1:N, downward) -->
<path d="M 1960,592 L 1960,616 L 1995,616 L 1995,640" fill="none" stroke="#4ecb71" stroke-width="1.2"/>
<circle cx="1995" cy="640" r="3" fill="#4ecb71"/>
<text x="1978" y="610" font-family="Consolas,monospace" font-size="9" fill="#4ecb71" text-anchor="middle">1:N</text>

<!-- === CROSS-DOMAIN (dashed gray #888899) === -->

<!-- users → menu_recommendation (upward, users to Menu/AI) -->
<path d="M 920,680 L 920,630 L 670,630 L 670,200 L 700,200" fill="none" stroke="#888899" stroke-width="1.2" stroke-dasharray="5,3"/>
<circle cx="700" cy="200" r="3" fill="#888899"/>
<text x="694" y="624" font-family="Consolas,monospace" font-size="9" fill="#888899" text-anchor="middle">1:N</text>

<!-- users → menu_selection (upward, users to Menu/AI) -->
<path d="M 1000,680 L 1000,630 L 1130,630 L 1130,292" fill="none" stroke="#888899" stroke-width="1.2" stroke-dasharray="5,3"/>
<circle cx="1130" cy="292" r="3" fill="#888899"/>
<text x="1070" y="624" font-family="Consolas,monospace" font-size="9" fill="#888899" text-anchor="middle">1:N</text>

<!-- users → user_place (leftward, users to Place) -->
<path d="M 860,750 L 840,750 L 840,600 L 650,600 L 650,510 L 320,510" fill="none" stroke="#888899" stroke-width="1.2" stroke-dasharray="5,3"/>
<circle cx="320" cy="510" r="3" fill="#888899"/>
<text x="490" y="604" font-family="Consolas,monospace" font-size="9" fill="#888899" text-anchor="middle">1:N</text>

<!-- users → place_rating (leftward, users to Place) -->
<path d="M 860,770 L 840,770 L 840,620 L 650,620 L 650,500 L 620,500" fill="none" stroke="#888899" stroke-width="1.2" stroke-dasharray="5,3"/>
<circle cx="620" cy="500" r="3" fill="#888899"/>
<text x="740" y="614" font-family="Consolas,monospace" font-size="9" fill="#888899" text-anchor="middle">1:N</text>

<!-- users → notification (rightward, users to Notification) -->
<path d="M 1100,760 L 1130,760 L 1130,660 L 1470,660 L 1470,460 L 1560,460" fill="none" stroke="#888899" stroke-width="1.2" stroke-dasharray="5,3"/>
<circle cx="1560" cy="460" r="3" fill="#888899"/>
<text x="1300" y="654" font-family="Consolas,monospace" font-size="9" fill="#888899" text-anchor="middle">1:N</text>

<!-- users → bug_report (rightward, users to Notification) -->
<path d="M 1100,780 L 1130,780 L 1130,650 L 1480,650 L 1480,470 L 1840,470" fill="none" stroke="#888899" stroke-width="1.2" stroke-dasharray="5,3"/>
<circle cx="1840" cy="470" r="3" fill="#888899"/>
<text x="1310" y="644" font-family="Consolas,monospace" font-size="9" fill="#888899" text-anchor="middle">1:N</text>

<!-- users → admin_audit_log (downward, users to Admin) -->
<path d="M 960,1132 L 960,1220 L 810,1220 L 810,1320" fill="none" stroke="#888899" stroke-width="1.2" stroke-dasharray="5,3"/>
<circle cx="810" cy="1320" r="3" fill="#888899"/>
<text x="885" y="1214" font-family="Consolas,monospace" font-size="9" fill="#888899" text-anchor="middle">1:N (admin)</text>

<!-- user_place → place_recommendation (cross: Place to Menu/AI) -->
<path d="M 320,480 L 510,480 L 510,440 L 700,440" fill="none" stroke="#888899" stroke-width="1.2" stroke-dasharray="5,3"/>
<circle cx="700" cy="440" r="3" fill="#888899"/>
<text x="510" y="434" font-family="Consolas,monospace" font-size="9" fill="#888899" text-anchor="middle">1:N</text>

<!-- place_recommendation → place_rating (cross: Menu/AI to Place) -->
<path d="M 700,500 L 660,500 L 660,530 L 620,530" fill="none" stroke="#888899" stroke-width="1.2" stroke-dasharray="5,3"/>
<circle cx="620" cy="530" r="3" fill="#888899"/>
<text x="660" y="524" font-family="Consolas,monospace" font-size="9" fill="#888899" text-anchor="middle">1:N</text>

<!-- batch_job → menu_selection (cross: Batch to Menu/AI) -->
<path d="M 1330,1320 L 1330,1230 L 1420,1230 L 1420,620 L 1260,620 L 1260,292" fill="none" stroke="#888899" stroke-width="1.2" stroke-dasharray="5,3"/>
<circle cx="1260" cy="292" r="3" fill="#888899"/>
<text x="1380" y="1224" font-family="Consolas,monospace" font-size="9" fill="#888899" text-anchor="middle">1:N</text>

<!-- users → user_place_rejection_history (adminId, cross: Auth to Place) -->
<path d="M 860,830 L 840,830 L 840,870 L 340,870" fill="none" stroke="#888899" stroke-width="1.2" stroke-dasharray="5,3"/>
<circle cx="340" cy="870" r="3" fill="#888899"/>
<text x="590" y="864" font-family="Consolas,monospace" font-size="9" fill="#888899" text-anchor="middle">1:N (admin)</text>

<!-- users → bug_report_admin_note (createdById, cross: Auth to Notification) -->
<path d="M 1100,800 L 1130,800 L 1130,860 L 1490,860 L 1490,730 L 1560,730" fill="none" stroke="#888899" stroke-width="1.2" stroke-dasharray="5,3"/>
<circle cx="1560" cy="730" r="3" fill="#888899"/>
<text x="1310" y="854" font-family="Consolas,monospace" font-size="9" fill="#888899" text-anchor="middle">1:N</text>

<!-- users → bug_report_status_history (changedById, cross: Auth to Notification) -->
<path d="M 1100,820 L 1130,820 L 1130,870 L 1500,870 L 1500,740 L 1860,740" fill="none" stroke="#888899" stroke-width="1.2" stroke-dasharray="5,3"/>
<circle cx="1860" cy="740" r="3" fill="#888899"/>
<text x="1320" y="864" font-family="Consolas,monospace" font-size="9" fill="#888899" text-anchor="middle">1:N</text>

<!-- ==================== LEGEND ==================== -->
<rect x="40" y="1780" width="780" height="70" rx="6" fill="#1a1a2e" stroke="#333" stroke-width="1"/>
<text x="60" y="1806" font-family="Helvetica,sans-serif" font-size="13" font-weight="bold" fill="#ffffff">Legend</text>
<text x="130" y="1806" font-family="Consolas,monospace" font-size="10" font-weight="bold" fill="#f0c040">PK</text>
<text x="150" y="1806" font-family="Helvetica,sans-serif" font-size="11" fill="#c8c8d0">Primary Key</text>
<text x="250" y="1806" font-family="Consolas,monospace" font-size="10" font-weight="bold" fill="#4ecb71">FK</text>
<text x="270" y="1806" font-family="Helvetica,sans-serif" font-size="11" fill="#c8c8d0">Foreign Key</text>

<rect x="130" y="1818" width="14" height="14" rx="2" fill="#4A90D9" opacity="0.5"/>
<text x="150" y="1830" font-family="Helvetica,sans-serif" font-size="10" fill="#c8c8d0">Auth</text>

<rect x="200" y="1818" width="14" height="14" rx="2" fill="#9B59B6" opacity="0.5"/>
<text x="220" y="1830" font-family="Helvetica,sans-serif" font-size="10" fill="#c8c8d0">Menu/AI</text>

<rect x="285" y="1818" width="14" height="14" rx="2" fill="#27AE60" opacity="0.5"/>
<text x="305" y="1830" font-family="Helvetica,sans-serif" font-size="10" fill="#c8c8d0">Place</text>

<rect x="355" y="1818" width="14" height="14" rx="2" fill="#F39C12" opacity="0.5"/>
<text x="375" y="1830" font-family="Helvetica,sans-serif" font-size="10" fill="#c8c8d0">Notification</text>

<rect x="465" y="1818" width="14" height="14" rx="2" fill="#E67E22" opacity="0.5"/>
<text x="485" y="1830" font-family="Helvetica,sans-serif" font-size="10" fill="#c8c8d0">Admin</text>

<rect x="540" y="1818" width="14" height="14" rx="2" fill="#E74C3C" opacity="0.5"/>
<text x="560" y="1830" font-family="Helvetica,sans-serif" font-size="10" fill="#c8c8d0">Batch</text>

<line x1="380" y1="1806" x2="420" y2="1806" stroke="#4ecb71" stroke-width="1.5"/>
<text x="425" y="1810" font-family="Helvetica,sans-serif" font-size="10" fill="#c8c8d0">Intra-domain FK</text>

<line x1="540" y1="1806" x2="580" y2="1806" stroke="#888899" stroke-width="1.5" stroke-dasharray="5,3"/>
<text x="585" y="1810" font-family="Helvetica,sans-serif" font-size="10" fill="#c8c8d0">Cross-domain FK</text>

<text x="700" y="1806" font-family="Helvetica,sans-serif" font-size="10" fill="#c8c8d0">1:N = One-to-Many</text>
<text x="700" y="1830" font-family="Helvetica,sans-serif" font-size="10" fill="#c8c8d0">1:1 = One-to-One</text>

<text x="1200" y="1870" font-family="Helvetica,sans-serif" font-size="12" fill="#888899" text-anchor="middle" font-style="italic">PickEat — Database Entity-Relationship Diagram</text>
</svg>